<svg width="584" height="617" viewBox="0 0 584 617" fill="none" xmlns="http://www.w3.org/2000/svg">
<g opacity="0.5">
<path fill-rule="evenodd" clip-rule="evenodd" d="M328.417 402.604C347.572 402.604 364.702 411.269 376.102 424.894C385.175 417.892 396.548 413.726 408.895 413.726C435.594 413.726 457.745 433.205 461.91 458.727C465.378 457.992 468.976 457.606 472.663 457.606C501.179 457.606 524.295 480.722 524.295 509.238C524.295 537.753 501.179 560.87 472.663 560.87C469.506 560.87 466.414 560.586 463.413 560.044C460.752 591.914 434.042 616.95 401.484 616.95C381.476 616.95 363.677 607.496 352.31 592.811C343.115 601.27 330.842 606.435 317.363 606.435C291.066 606.435 269.361 586.776 266.142 561.354C260.389 563.112 254.28 564.059 247.951 564.059C213.628 564.059 185.804 536.234 185.804 501.911C185.804 467.588 213.628 439.764 247.951 439.764C255.68 439.764 263.08 441.175 269.906 443.754C278.517 419.763 301.463 402.604 328.417 402.604Z" fill="url(#paint0_linear_1111_4027)" fill-opacity="0.7"/>
<path fill-rule="evenodd" clip-rule="evenodd" d="M61.2713 189.236C43.972 189.236 29.9482 175.213 29.9482 157.913C29.9482 140.614 43.972 126.59 61.2713 126.59C62.9281 126.59 64.555 126.719 66.1423 126.967C70.7905 111.371 85.241 100 102.347 100C116.378 100 128.621 107.649 135.135 119.005C139.715 115.948 145.218 114.165 151.138 114.165C166.015 114.165 178.262 125.424 179.824 139.886C191.792 141.654 200.977 151.968 200.977 164.427C200.977 178.129 189.87 189.236 176.168 189.236C176.029 189.236 175.891 189.235 175.753 189.233V189.236L61.2713 189.236Z" fill="url(#paint1_linear_1111_4027)" fill-opacity="0.3"/>
<path fill-rule="evenodd" clip-rule="evenodd" d="M305.355 285.046C305.266 285.047 305.176 285.048 305.087 285.048C296.236 285.048 289.062 277.873 289.062 269.023C289.062 260.975 294.995 254.313 302.725 253.171C303.734 243.83 311.645 236.558 321.254 236.558C325.078 236.558 328.633 237.709 331.591 239.684C335.798 232.349 343.707 227.408 352.769 227.408C363.819 227.408 373.152 234.753 376.155 244.827C377.18 244.667 378.231 244.584 379.301 244.584C390.475 244.584 399.533 253.642 399.533 264.816C399.533 275.99 390.475 285.048 379.301 285.048L305.355 285.048V285.046Z" fill="url(#paint2_linear_1111_4027)" fill-opacity="0.5"/>
<path fill-rule="evenodd" clip-rule="evenodd" d="M22.9663 429.246C22.8403 429.248 22.7141 429.249 22.5877 429.249C10.1125 429.249 -0.000739508 419.136 -0.000739508 406.661C-0.000739508 395.316 8.36215 385.925 19.2593 384.316C20.6814 371.148 31.8326 360.897 45.3782 360.897C50.7679 360.897 55.7786 362.52 59.9482 365.304C65.8793 354.965 77.0272 348 89.8018 348C105.377 348 118.534 358.353 122.766 372.553C124.211 372.327 125.693 372.21 127.201 372.21C142.952 372.21 155.721 384.979 155.721 400.73C155.721 416.481 142.952 429.249 127.201 429.249C127.187 429.249 127.173 429.249 127.159 429.249H22.9663V429.246Z" fill="url(#paint3_linear_1111_4027)" fill-opacity="0.5"/>
<path fill-rule="evenodd" clip-rule="evenodd" d="M540.077 256.227C564.335 256.227 584 236.562 584 212.304C584 188.045 564.335 168.38 540.077 168.38C537.753 168.38 535.472 168.561 533.246 168.908C526.728 147.039 506.465 131.094 482.477 131.094C462.803 131.094 445.634 141.82 436.5 157.744C430.078 153.456 422.361 150.957 414.06 150.957C393.199 150.957 376.025 166.745 373.834 187.024C357.052 189.503 344.172 203.966 344.172 221.438C344.172 240.651 359.747 256.227 378.961 256.227C379.155 256.227 379.349 256.225 379.543 256.222V256.227H540.077Z" fill="url(#paint4_linear_1111_4027)" fill-opacity="0.5"/>
</g>
<defs>
<linearGradient id="paint0_linear_1111_4027" x1="355.049" y1="402.604" x2="355.049" y2="616.95" gradientUnits="userSpaceOnUse">
<stop stop-color="white"/>
<stop offset="1" stop-color="white" stop-opacity="0.5"/>
</linearGradient>
<linearGradient id="paint1_linear_1111_4027" x1="115.463" y1="100" x2="115.463" y2="189.236" gradientUnits="userSpaceOnUse">
<stop stop-color="white"/>
<stop offset="1" stop-color="white" stop-opacity="0.5"/>
</linearGradient>
<linearGradient id="paint2_linear_1111_4027" x1="344.298" y1="227.408" x2="344.298" y2="285.048" gradientUnits="userSpaceOnUse">
<stop stop-color="white"/>
<stop offset="1" stop-color="white" stop-opacity="0.5"/>
</linearGradient>
<linearGradient id="paint3_linear_1111_4027" x1="77.86" y1="348" x2="77.86" y2="429.249" gradientUnits="userSpaceOnUse">
<stop stop-color="white"/>
<stop offset="1" stop-color="white" stop-opacity="0.5"/>
</linearGradient>
<linearGradient id="paint4_linear_1111_4027" x1="464.086" y1="131.094" x2="464.086" y2="256.227" gradientUnits="userSpaceOnUse">
<stop stop-color="white"/>
<stop offset="1" stop-color="white" stop-opacity="0.5"/>
</linearGradient>
</defs>
</svg>
