<svg width="2263" height="2319" viewBox="0 0 2263 2319" fill="none" xmlns="http://www.w3.org/2000/svg">
<path fill-rule="evenodd" clip-rule="evenodd" d="M1158.15 1471C1233.92 1471 1301.68 1505.28 1346.78 1559.18C1382.67 1531.48 1427.66 1515 1476.5 1515C1582.12 1515 1669.74 1592.05 1686.22 1693.01C1699.94 1690.11 1714.17 1688.58 1728.75 1688.58C1841.56 1688.58 1933 1780.02 1933 1892.82C1933 2005.62 1841.56 2097.07 1728.75 2097.07C1716.26 2097.07 1704.04 2095.95 1692.16 2093.8C1681.64 2219.87 1575.98 2318.91 1447.18 2318.91C1368.04 2318.91 1297.63 2281.51 1252.66 2223.42C1216.29 2256.88 1167.74 2277.31 1114.42 2277.31C1010.4 2277.31 924.535 2199.55 911.802 2098.98C889.042 2105.94 864.878 2109.68 839.841 2109.68C704.067 2109.68 594 1999.61 594 1863.84C594 1728.07 704.067 1618 839.841 1618C870.416 1618 899.687 1623.58 926.692 1633.78C960.753 1538.88 1051.52 1471 1158.15 1471Z" fill="url(#paint0_linear_1642_5419)" fill-opacity="0.7"/>
<path fill-rule="evenodd" clip-rule="evenodd" d="M799.126 720.986C799.673 720.995 800.221 721 800.77 721C854.97 721 898.909 677.062 898.909 622.861C898.909 573.574 862.575 532.773 815.232 525.78C809.053 468.572 760.605 424.034 701.754 424.034C678.337 424.034 656.568 431.085 638.452 443.18C612.684 398.259 564.25 368 508.749 368C441.081 368 383.918 412.981 365.531 474.675C359.251 473.694 352.816 473.186 346.262 473.186C277.83 473.186 222.354 528.661 222.354 597.093C222.354 665.525 277.83 721 346.262 721L799.126 721V720.986Z" fill="url(#paint1_linear_1642_5419)" fill-opacity="0.3"/>
<path fill-rule="evenodd" clip-rule="evenodd" d="M1452.97 1255.01C1497.17 1255.01 1533 1219.18 1533 1174.98C1533 1130.77 1497.17 1094.94 1452.97 1094.94C1448.73 1094.94 1444.57 1095.27 1440.52 1095.9C1428.64 1056.05 1391.72 1027 1348.01 1027C1312.16 1027 1280.88 1046.55 1264.23 1075.56C1252.53 1067.75 1238.47 1063.19 1223.35 1063.19C1185.33 1063.19 1154.04 1091.96 1150.05 1128.91C1119.47 1133.43 1096 1159.78 1096 1191.62C1096 1226.63 1124.38 1255.01 1159.39 1255.01C1159.74 1255.01 1160.1 1255.01 1160.45 1255V1255.01L1452.97 1255.01Z" fill="url(#paint2_linear_1642_5419)" fill-opacity="0.5"/>
<path fill-rule="evenodd" clip-rule="evenodd" d="M90.8527 1519.39C90.3546 1519.4 89.8555 1519.41 89.3555 1519.41C40.006 1519.41 0.000366211 1479.4 0.000366211 1430.05C0.000366211 1385.17 33.0821 1348.02 76.1888 1341.66C81.8144 1289.57 125.926 1249.02 179.51 1249.02C200.83 1249.02 220.652 1255.44 237.145 1266.45C260.608 1225.55 304.706 1198 355.24 1198C416.852 1198 468.898 1238.96 485.64 1295.13C491.357 1294.23 497.216 1293.77 503.184 1293.77C565.491 1293.77 616.001 1344.28 616.001 1406.59C616.001 1468.9 565.491 1519.41 503.184 1519.41L90.8527 1519.41V1519.39Z" fill="url(#paint3_linear_1642_5419)" fill-opacity="0.5"/>
<path fill-rule="evenodd" clip-rule="evenodd" d="M1453.92 1140.98C1453.15 1140.99 1452.39 1141 1451.62 1141C1375.61 1141 1314 1079.39 1314 1003.38C1314 934.268 1364.95 877.054 1431.34 867.25C1440 787.028 1507.94 724.574 1590.46 724.574C1623.3 724.574 1653.83 734.462 1679.23 751.423C1715.36 688.432 1783.28 646 1861.11 646C1956 646 2036.15 709.076 2061.94 795.586C2070.74 794.211 2079.77 793.498 2088.96 793.498C2184.92 793.498 2262.71 871.289 2262.71 967.249C2262.71 1063.21 2184.92 1141 2088.96 1141L1453.92 1141V1140.98Z" fill="url(#paint4_linear_1642_5419)" fill-opacity="0.5"/>
<defs>
<linearGradient id="paint0_linear_1642_5419" x1="1263.5" y1="1471" x2="1263.5" y2="2318.91" gradientUnits="userSpaceOnUse">
<stop stop-color="white"/>
<stop offset="1" stop-color="white" stop-opacity="0.5"/>
</linearGradient>
<linearGradient id="paint1_linear_1642_5419" x1="560.632" y1="368" x2="560.632" y2="721" gradientUnits="userSpaceOnUse">
<stop stop-color="white"/>
<stop offset="1" stop-color="white" stop-opacity="0.5"/>
</linearGradient>
<linearGradient id="paint2_linear_1642_5419" x1="1314.5" y1="1027" x2="1314.5" y2="1255.01" gradientUnits="userSpaceOnUse">
<stop stop-color="white"/>
<stop offset="1" stop-color="white" stop-opacity="0.5"/>
</linearGradient>
<linearGradient id="paint3_linear_1642_5419" x1="308.001" y1="1198" x2="308.001" y2="1519.41" gradientUnits="userSpaceOnUse">
<stop stop-color="white"/>
<stop offset="1" stop-color="white" stop-opacity="0.5"/>
</linearGradient>
<linearGradient id="paint4_linear_1642_5419" x1="1788.35" y1="646" x2="1788.35" y2="1141" gradientUnits="userSpaceOnUse">
<stop stop-color="white"/>
<stop offset="1" stop-color="white" stop-opacity="0.5"/>
</linearGradient>
</defs>
</svg>
