<svg width="915" height="789" viewBox="0 0 915 789" fill="none" xmlns="http://www.w3.org/2000/svg">
<g opacity="0.5">
<path fill-rule="evenodd" clip-rule="evenodd" d="M514.567 452.519C544.566 452.519 571.396 466.091 589.25 487.43C603.459 476.463 621.272 469.94 640.609 469.94C682.426 469.94 717.117 500.447 723.64 540.419C729.073 539.268 734.707 538.663 740.483 538.663C785.143 538.663 821.348 574.868 821.348 619.528C821.348 664.189 785.143 700.393 740.483 700.393C735.537 700.393 730.696 699.949 725.996 699.099C721.828 749.014 679.995 788.226 629.003 788.226C597.668 788.226 569.791 773.418 551.988 750.419C537.586 763.667 518.365 771.757 497.254 771.757C456.069 771.757 422.074 740.968 417.033 701.151C408.022 703.906 398.455 705.387 388.542 705.387C334.786 705.387 291.208 661.81 291.208 608.054C291.208 554.298 334.786 510.72 388.542 510.72C400.647 510.72 412.237 512.93 422.928 516.968C436.414 479.394 472.352 452.519 514.567 452.519Z" fill="url(#paint0_linear_1111_4094)" fill-opacity="0.7"/>
<path fill-rule="evenodd" clip-rule="evenodd" d="M275.467 189.755C275.684 189.759 275.9 189.76 276.118 189.76C297.577 189.76 314.973 172.364 314.973 150.905C314.973 131.391 300.588 115.237 281.844 112.469C279.398 89.8186 260.216 72.1849 236.915 72.1849C227.644 72.1849 219.025 74.9769 211.853 79.7658C201.65 61.9804 182.474 50 160.5 50C133.709 50 111.077 67.8091 103.797 92.235C101.311 91.8468 98.7628 91.6453 96.1679 91.6453C69.0742 91.6453 47.1104 113.609 47.1104 140.703C47.1104 167.797 69.0742 189.76 96.1679 189.76C96.168 189.76 96.1682 189.761 96.1683 189.761H275.467V189.755Z" fill="url(#paint1_linear_1111_4094)" fill-opacity="0.3"/>
<path fill-rule="evenodd" clip-rule="evenodd" d="M478.448 339.815C478.308 339.818 478.168 339.819 478.028 339.819C464.167 339.819 452.93 328.582 452.93 314.721C452.93 302.117 462.222 291.683 474.329 289.895C475.909 275.264 488.299 263.874 503.349 263.874C509.338 263.874 514.905 265.678 519.538 268.771C526.128 257.283 538.514 249.545 552.708 249.545C570.013 249.545 584.631 261.048 589.333 276.825C590.939 276.574 592.585 276.444 594.261 276.444C611.761 276.444 625.948 290.631 625.948 308.132C625.948 325.632 611.761 339.819 594.261 339.819C594.261 339.819 594.261 339.819 594.261 339.819H478.448V339.815Z" fill="url(#paint2_linear_1111_4094)" fill-opacity="0.5"/>
<path fill-rule="evenodd" clip-rule="evenodd" d="M199.427 494.251C224.096 494.251 244.094 474.253 244.094 449.585C244.094 424.916 224.096 404.918 199.427 404.918C197.064 404.918 194.744 405.101 192.48 405.455C185.852 383.215 165.246 367 140.852 367C120.845 367 103.385 377.908 94.0959 394.101C87.5656 389.741 79.718 387.199 71.2767 387.199C50.0619 387.199 32.5971 403.255 30.3697 423.877C13.3027 426.398 0.204854 441.106 0.204854 458.874C0.204854 478.412 16.044 494.251 35.5825 494.251C35.7807 494.251 35.9785 494.25 36.1759 494.246V494.251L199.427 494.251Z" fill="url(#paint3_linear_1111_4094)" fill-opacity="0.5"/>
<path fill-rule="evenodd" clip-rule="evenodd" d="M594.64 294.672C594.336 294.677 594.032 294.679 593.728 294.679C563.636 294.679 539.242 270.285 539.242 240.194C539.242 212.83 559.414 190.178 585.699 186.296C589.129 154.534 616.027 129.807 648.7 129.807C661.701 129.807 673.787 133.722 683.844 140.437C698.151 115.498 725.041 98.6982 755.854 98.6982C793.423 98.6982 825.159 123.671 835.367 157.923C838.854 157.378 842.427 157.096 846.066 157.096C884.058 157.096 914.857 187.895 914.857 225.888C914.857 263.88 884.058 294.679 846.066 294.679C846.044 294.679 846.022 294.679 846 294.679H594.64V294.672Z" fill="url(#paint4_linear_1111_4094)" fill-opacity="0.5"/>
</g>
<defs>
<linearGradient id="paint0_linear_1111_4094" x1="556.278" y1="452.519" x2="556.278" y2="788.226" gradientUnits="userSpaceOnUse">
<stop stop-color="white"/>
<stop offset="1" stop-color="white" stop-opacity="0.5"/>
</linearGradient>
<linearGradient id="paint1_linear_1111_4094" x1="181.042" y1="50" x2="181.042" y2="189.76" gradientUnits="userSpaceOnUse">
<stop stop-color="white"/>
<stop offset="1" stop-color="white" stop-opacity="0.5"/>
</linearGradient>
<linearGradient id="paint2_linear_1111_4094" x1="539.439" y1="249.545" x2="539.439" y2="339.819" gradientUnits="userSpaceOnUse">
<stop stop-color="white"/>
<stop offset="1" stop-color="white" stop-opacity="0.5"/>
</linearGradient>
<linearGradient id="paint3_linear_1111_4094" x1="122.149" y1="367" x2="122.149" y2="494.251" gradientUnits="userSpaceOnUse">
<stop stop-color="white"/>
<stop offset="1" stop-color="white" stop-opacity="0.5"/>
</linearGradient>
<linearGradient id="paint4_linear_1111_4094" x1="727.05" y1="98.6982" x2="727.05" y2="294.68" gradientUnits="userSpaceOnUse">
<stop stop-color="white"/>
<stop offset="1" stop-color="white" stop-opacity="0.5"/>
</linearGradient>
</defs>
</svg>
