<svg width="2263" height="1796" viewBox="0 0 2263 1796" fill="none" xmlns="http://www.w3.org/2000/svg">
<g opacity="0.5">
<path fill-rule="evenodd" clip-rule="evenodd" d="M1158.15 948C1233.92 948 1301.68 982.279 1346.78 1036.18C1382.67 1008.48 1427.66 992 1476.5 992C1582.12 992 1669.74 1069.05 1686.22 1170.01C1699.94 1167.11 1714.17 1165.58 1728.75 1165.58C1841.56 1165.58 1933 1257.02 1933 1369.82C1933 1482.62 1841.56 1574.07 1728.75 1574.07C1716.26 1574.07 1704.03 1572.95 1692.16 1570.8C1681.64 1696.87 1575.98 1795.91 1447.18 1795.91C1368.04 1795.91 1297.63 1758.51 1252.66 1700.42C1216.29 1733.88 1167.74 1754.31 1114.42 1754.31C1010.39 1754.31 924.534 1676.55 911.802 1575.98C889.041 1582.94 864.878 1586.68 839.84 1586.68C704.066 1586.68 594 1476.61 594 1340.84C594 1205.07 704.066 1095 839.84 1095C870.415 1095 899.687 1100.58 926.691 1110.78C960.752 1015.88 1051.52 948 1158.15 948Z" fill="url(#paint0_linear_521_1795)" fill-opacity="0.7"/>
<path fill-rule="evenodd" clip-rule="evenodd" d="M647.771 352.986C648.318 352.995 648.866 353 649.415 353C703.615 353 747.554 309.062 747.554 254.861C747.554 205.574 711.22 164.773 663.877 157.78C657.698 100.572 609.25 56.0336 550.399 56.0336C526.982 56.0336 505.213 63.0851 487.097 75.1805C461.329 30.2593 412.895 0 357.394 0C289.726 0 232.563 44.9815 214.176 106.675C207.896 105.694 201.461 105.186 194.907 105.186C126.475 105.186 70.9995 160.661 70.9995 229.093C70.9995 297.525 126.475 353 194.907 353L647.771 353V352.986Z" fill="url(#paint1_linear_521_1795)" fill-opacity="0.3"/>
<path fill-rule="evenodd" clip-rule="evenodd" d="M1452.97 732.01C1497.17 732.01 1533 696.177 1533 651.976C1533 607.774 1497.17 571.942 1452.97 571.942C1448.73 571.942 1444.57 572.27 1440.52 572.904C1428.64 533.054 1391.72 504 1348.01 504C1312.16 504 1280.88 523.545 1264.23 552.561C1252.53 544.748 1238.47 540.193 1223.35 540.193C1185.33 540.193 1154.04 568.961 1150.05 605.914C1119.47 610.43 1096 636.784 1096 668.62C1096 703.629 1124.38 732.01 1159.39 732.01C1159.74 732.01 1160.1 732.007 1160.45 732.001V732.01L1452.97 732.01Z" fill="url(#paint2_linear_521_1795)" fill-opacity="0.5"/>
<path fill-rule="evenodd" clip-rule="evenodd" d="M90.8522 996.393C90.3541 996.401 89.855 996.405 89.355 996.405C40.0055 996.405 -0.00012207 956.399 -0.00012207 907.05C-0.00012207 862.174 33.0816 825.024 76.1884 818.658C81.8139 766.57 125.926 726.019 179.509 726.019C200.83 726.019 220.651 732.439 237.145 743.452C260.607 702.551 304.706 675 355.239 675C416.851 675 468.898 715.955 485.639 772.127C491.356 771.234 497.216 770.771 503.183 770.771C565.491 770.771 616 821.281 616 883.588C616 945.895 565.491 996.405 503.183 996.405L90.8522 996.405V996.393Z" fill="url(#paint3_linear_521_1795)" fill-opacity="0.5"/>
<path fill-rule="evenodd" clip-rule="evenodd" d="M1453.92 617.981C1453.15 617.993 1452.39 618 1451.62 618C1375.61 618 1314 556.386 1314 480.383C1314 411.268 1364.95 354.054 1431.34 344.25C1440 264.028 1507.94 201.574 1590.46 201.574C1623.3 201.574 1653.83 211.462 1679.23 228.423C1715.36 165.432 1783.28 123 1861.11 123C1956 123 2036.15 186.076 2061.94 272.586C2070.74 271.211 2079.77 270.498 2088.96 270.498C2184.92 270.498 2262.71 348.289 2262.71 444.249C2262.71 540.209 2184.92 618 2088.96 618L1453.92 618V617.981Z" fill="url(#paint4_linear_521_1795)" fill-opacity="0.5"/>
</g>
<defs>
<linearGradient id="paint0_linear_521_1795" x1="1263.5" y1="948" x2="1263.5" y2="1795.91" gradientUnits="userSpaceOnUse">
<stop stop-color="white"/>
<stop offset="1" stop-color="white" stop-opacity="0.5"/>
</linearGradient>
<linearGradient id="paint1_linear_521_1795" x1="409.277" y1="0" x2="409.277" y2="353" gradientUnits="userSpaceOnUse">
<stop stop-color="white"/>
<stop offset="1" stop-color="white" stop-opacity="0.5"/>
</linearGradient>
<linearGradient id="paint2_linear_521_1795" x1="1314.5" y1="504" x2="1314.5" y2="732.01" gradientUnits="userSpaceOnUse">
<stop stop-color="white"/>
<stop offset="1" stop-color="white" stop-opacity="0.5"/>
</linearGradient>
<linearGradient id="paint3_linear_521_1795" x1="308" y1="675" x2="308" y2="996.405" gradientUnits="userSpaceOnUse">
<stop stop-color="white"/>
<stop offset="1" stop-color="white" stop-opacity="0.5"/>
</linearGradient>
<linearGradient id="paint4_linear_521_1795" x1="1788.35" y1="123" x2="1788.35" y2="618" gradientUnits="userSpaceOnUse">
<stop stop-color="white"/>
<stop offset="1" stop-color="white" stop-opacity="0.5"/>
</linearGradient>
</defs>
</svg>
