<svg width="2756" height="1796" viewBox="0 0 2756 1796" fill="none" xmlns="http://www.w3.org/2000/svg">
<g opacity="0.5">
<path fill-rule="evenodd" clip-rule="evenodd" d="M1651.15 948C1726.92 948 1794.68 982.279 1839.78 1036.18C1875.67 1008.48 1920.66 992 1969.5 992C2075.12 992 2162.74 1069.05 2179.22 1170.01C2192.94 1167.11 2207.17 1165.58 2221.75 1165.58C2334.56 1165.58 2426 1257.02 2426 1369.82C2426 1482.62 2334.56 1574.07 2221.75 1574.07C2209.26 1574.07 2197.04 1572.95 2185.16 1570.8C2174.64 1696.87 2068.98 1795.91 1940.18 1795.91C1861.04 1795.91 1790.63 1758.51 1745.66 1700.42C1709.29 1733.88 1660.74 1754.31 1607.42 1754.31C1503.39 1754.31 1417.53 1676.55 1404.8 1575.98C1382.04 1582.94 1357.88 1586.68 1332.84 1586.68C1197.07 1586.68 1087 1476.61 1087 1340.84C1087 1205.07 1197.07 1095 1332.84 1095C1363.42 1095 1392.69 1100.58 1419.69 1110.78C1453.75 1015.88 1544.52 948 1651.15 948Z" fill="url(#paint0_linear_527_895)" fill-opacity="0.7"/>
<path fill-rule="evenodd" clip-rule="evenodd" d="M1140.77 352.986C1141.32 352.995 1141.87 353 1142.41 353C1196.62 353 1240.55 309.062 1240.55 254.861C1240.55 205.574 1204.22 164.773 1156.88 157.78C1150.7 100.572 1102.25 56.0336 1043.4 56.0336C1019.98 56.0336 998.213 63.0851 980.098 75.1805C954.329 30.2593 905.895 0 850.394 0C782.726 0 725.563 44.9815 707.176 106.675C700.897 105.694 694.461 105.186 687.907 105.186C619.475 105.186 564 160.661 564 229.093C564 297.525 619.475 353 687.907 353L1140.77 353V352.986Z" fill="url(#paint1_linear_527_895)" fill-opacity="0.3"/>
<path fill-rule="evenodd" clip-rule="evenodd" d="M1945.97 732.01C1990.17 732.01 2026 696.177 2026 651.976C2026 607.774 1990.17 571.942 1945.97 571.942C1941.73 571.942 1937.58 572.27 1933.52 572.904C1921.64 533.054 1884.72 504 1841.01 504C1805.16 504 1773.88 523.545 1757.23 552.561C1745.53 544.748 1731.47 540.193 1716.35 540.193C1678.33 540.193 1647.04 568.961 1643.05 605.914C1612.47 610.43 1589 636.784 1589 668.62C1589 703.629 1617.38 732.01 1652.39 732.01C1652.74 732.01 1653.1 732.007 1653.45 732.001V732.01L1945.97 732.01Z" fill="url(#paint2_linear_527_895)" fill-opacity="0.5"/>
<path fill-rule="evenodd" clip-rule="evenodd" d="M442.852 1053.39C442.354 1053.4 441.855 1053.41 441.355 1053.41C392.006 1053.41 352 1013.4 352 964.05C352 919.174 385.082 882.024 428.188 875.658C433.814 823.57 477.926 783.019 531.509 783.019C552.83 783.019 572.651 789.439 589.145 800.452C612.607 759.551 656.706 732 707.239 732C768.851 732 820.898 772.955 837.639 829.127C843.357 828.234 849.216 827.771 855.184 827.771C917.491 827.771 968.001 878.281 968.001 940.588C968.001 1002.9 917.491 1053.41 855.184 1053.41L442.852 1053.41V1053.39Z" fill="url(#paint3_linear_527_895)" fill-opacity="0.5"/>
<path fill-rule="evenodd" clip-rule="evenodd" d="M1946.92 617.981C1946.15 617.993 1945.39 618 1944.62 618C1868.61 618 1807 556.386 1807 480.383C1807 411.268 1857.95 354.054 1924.34 344.25C1933 264.028 2000.94 201.574 2083.46 201.574C2116.3 201.574 2146.83 211.462 2172.23 228.423C2208.36 165.432 2276.28 123 2354.11 123C2449 123 2529.15 186.076 2554.94 272.586C2563.74 271.211 2572.77 270.498 2581.96 270.498C2677.92 270.498 2755.71 348.289 2755.71 444.249C2755.71 540.209 2677.92 618 2581.96 618L1946.92 618V617.981Z" fill="url(#paint4_linear_527_895)" fill-opacity="0.5"/>
</g>
<defs>
<linearGradient id="paint0_linear_527_895" x1="1756.5" y1="948" x2="1756.5" y2="1795.91" gradientUnits="userSpaceOnUse">
<stop stop-color="white"/>
<stop offset="1" stop-color="white" stop-opacity="0.5"/>
</linearGradient>
<linearGradient id="paint1_linear_527_895" x1="902.277" y1="0" x2="902.277" y2="353" gradientUnits="userSpaceOnUse">
<stop stop-color="white"/>
<stop offset="1" stop-color="white" stop-opacity="0.5"/>
</linearGradient>
<linearGradient id="paint2_linear_527_895" x1="1807.5" y1="504" x2="1807.5" y2="732.01" gradientUnits="userSpaceOnUse">
<stop stop-color="white"/>
<stop offset="1" stop-color="white" stop-opacity="0.5"/>
</linearGradient>
<linearGradient id="paint3_linear_527_895" x1="660" y1="732" x2="660" y2="1053.41" gradientUnits="userSpaceOnUse">
<stop stop-color="white"/>
<stop offset="1" stop-color="white" stop-opacity="0.5"/>
</linearGradient>
<linearGradient id="paint4_linear_527_895" x1="2281.35" y1="123" x2="2281.35" y2="618" gradientUnits="userSpaceOnUse">
<stop stop-color="white"/>
<stop offset="1" stop-color="white" stop-opacity="0.5"/>
</linearGradient>
</defs>
</svg>
