<svg width="450" height="450" viewBox="0 0 450 450" fill="none" xmlns="http://www.w3.org/2000/svg">
<g clip-path="url(#clip0_1071_3857)">
<rect width="450" height="450" fill="#D9D9D9"/>
<path d="M382.5 452.139C382.5 410.368 365.906 370.307 336.369 340.77C306.832 311.233 266.772 294.639 225 294.639C183.228 294.639 143.168 311.233 113.631 340.77C84.0937 370.307 67.5 410.368 67.5 452.139L225 452.139H382.5Z" fill="url(#paint0_linear_1071_3857)"/>
<path d="M151.491 98.17C150.441 97.96 146.451 98.38 145.401 99.43L142.041 96.7C142.881 86.83 174.171 88.3 195.801 88.3L249.141 177.13L253.341 183.64L254.181 183.43L253.971 177.13V98.17C252.921 97.96 248.931 98.38 247.881 99.43L244.521 96.7C245.361 86.83 276.651 88.3 300.381 88.3C302.061 138.91 302.061 212.62 300.381 263.23H256.071L204.201 176.08L200.001 169.57L198.951 169.78L199.161 176.08C199.161 205.27 198.741 236.98 197.901 263.23L151.491 264.07V98.17Z" fill="white"/>
</g>
<defs>
<linearGradient id="paint0_linear_1071_3857" x1="225" y1="294.639" x2="225" y2="609.639" gradientUnits="userSpaceOnUse">
<stop stop-color="white"/>
<stop offset="1" stop-color="#D9D9D9"/>
</linearGradient>
<clipPath id="clip0_1071_3857">
<rect width="450" height="450" fill="white"/>
</clipPath>
</defs>
</svg>
