<svg width="35" height="35" viewBox="0 0 35 35" fill="none" xmlns="http://www.w3.org/2000/svg">
<path d="M16.6678 7.53596L17.5013 8.28245L18.3352 7.53643C19.7636 6.2585 21.6272 5.57597 23.5431 5.62897C25.459 5.68197 27.2819 6.46642 28.6375 7.82127C29.9917 9.17526 30.7767 10.9959 30.8315 12.9101C30.886 14.813 30.2149 16.6649 28.955 18.0909L17.4989 29.5632L6.0454 18.0908C4.7839 16.664 4.11211 14.8104 4.1672 12.9059C4.22262 10.9902 5.00931 9.1684 6.36578 7.8145C7.72224 6.4606 9.54554 5.67734 11.4614 5.62555C13.3772 5.57375 15.2401 6.25733 16.6678 7.53596Z" stroke="#8EB1FC" stroke-width="2.5"/>
</svg>
