<svg width="30" height="30" viewBox="0 0 35 35" fill="none" xmlns="http://www.w3.org/2000/svg">
<path d="M16.6673 7.53572L17.5008 8.2822L18.3347 7.53619C19.7632 6.25826 21.6267 5.57572 23.5426 5.62872C25.4585 5.68172 27.2814 6.46618 28.637 7.82102C29.9912 9.17501 30.7762 10.9957 30.831 12.9099C30.8855 14.8127 30.2144 16.6647 28.9546 18.0906L17.4984 29.563L6.04491 18.0905C4.78341 16.6638 4.11162 14.8102 4.16671 12.9057C4.22213 10.99 5.00882 9.16816 6.36529 7.81426C7.72175 6.46035 9.54505 5.6771 11.4609 5.6253C13.3767 5.5735 15.2397 6.25709 16.6673 7.53572Z" stroke="white" stroke-width="2"/>
</svg>
