<svg width="47" height="25" viewBox="0 0 47 25" fill="none" xmlns="http://www.w3.org/2000/svg">
<path d="M23.18 24.96C18.94 24.96 16.66 23.8 16.66 21.4C16.66 20.8 16.62 20.72 16.26 20.6C14.98 20.16 14.3 19.2 14.3 17.84C14.3 17.08 14.7 16.48 14.7 16.04C14.7 15.76 14.5 15.6 14.14 15.44C12.98 14.92 12.42 14.16 12.42 12.88C12.42 11.92 12.58 11.24 13.06 10.56C11.9 10.48 10.66 10.4 9.38 10.4C7.7 10.4 5.82 10.52 4.9 10.52C2.3 10.52 0.98 9.64 0.98 7.76C0.98 5.84 2.38 4.92 5.66 4.52C7.3 4.32 9.62 4.04 11.46 3.84C12.62 3.72 13.78 3.64 14.94 3.56C15.26 3.32 15.74 3.08 16.22 2.96C16.94 2.76 18.34 2.36 20.1 1.64C21.78 0.959999 24.02 0.599998 26.78 0.599998C29.18 0.599998 30.78 1.24 33.26 3.2C35.54 5 36.06 5.08 37.46 5.08C38.1 5.08 39.58 4.96 39.7 5C40.94 6.4 41.82 9.68 41.82 12.68C41.82 16.64 41.1 19.44 39.66 20.96H36.74C33.1 23.72 27.58 24.96 23.18 24.96ZM21.58 23.6H23.18C28.3 23.6 33.34 22 36.26 19.52H38.98C39.9 18.16 40.38 15.88 40.38 12.68C40.38 10.36 39.78 7.84 38.98 6.44C38.5 6.48 37.86 6.52 37.46 6.52C35.66 6.52 34.74 6.24 32.38 4.36C30.14 2.56 28.86 2.04 26.78 2.04C24.22 2.04 22.14 2.36 20.66 2.96C18.82 3.72 17.3 4.16 16.58 4.36C16.14 4.48 15.62 4.8 15.62 4.92H15.58V5.32C15.58 6.8 16.62 7.48 17.7 7.48C19.34 7.48 23.62 6.68 24.1 6.16L25.18 7.12C24.9 7.4 24.22 7.72 23.34 7.96C23.54 8.32 23.78 8.64 23.98 8.92C24.62 8.68 25.22 8.48 25.82 8.48C27.46 8.48 28.34 9.64 28.34 11C28.34 11.4 28.26 11.8 28.14 12.16C28.94 12.24 29.58 12.68 29.94 13.32C30.66 13.68 31.54 13.8 32.66 13.8C33.18 13.8 34.02 13.76 34.46 13.64V15.04C33.98 15.16 33.3 15.24 32.66 15.24C31.74 15.24 30.94 15.16 30.22 14.92C30.18 15.44 29.98 15.88 29.78 16.12C29.34 16.48 28.46 17 27.46 17.52C27.74 17.84 27.98 18.32 27.98 18.84C27.98 19.12 27.94 19.44 27.86 19.64C27.26 20.52 25.9 21.6 24.3 22.44C23.06 23.08 22.22 23.4 21.58 23.6ZM40.5 22.28C39.9 22.28 39.7 21.92 39.7 21.48V21.2C39.86 21.48 40.02 21.6 40.3 21.6C42.42 21.6 43.14 16.64 43.14 12.96C43.14 9.36 42.54 4.36 40.3 4.36C40.02 4.36 39.9 4.4 39.7 4.64V4.56C39.7 3.96 40.02 3.6 40.5 3.6H43.5C46.06 3.6 46.82 9.32 46.82 12.96C46.82 16.64 46.1 22.28 43.5 22.28H40.5ZM18.58 10.52C20.66 10.2 21.9 9.68 22.58 9.44H22.62C22.38 9.08 22.14 8.72 21.94 8.32C20.38 8.68 18.66 8.92 17.62 8.92C15.78 8.92 14.18 7.6 14.18 5.28V5.08C13.26 5.16 12.38 5.2 11.66 5.28C9.66 5.48 7.46 5.72 5.86 5.96C3.26 6.36 2.42 6.76 2.42 7.76C2.42 8.68 2.98 9.08 4.9 9.08C5.78 9.08 7.66 8.96 9.38 8.96C10.94 8.96 12.9 9.12 14.5 9.2C14.86 9.12 15.26 9.08 15.98 9.08C17.14 9.08 18.3 9.56 18.58 10.52ZM17.18 15.12C18.22 15.12 20.26 14.84 21.82 14.28C24.42 13.36 25.94 12.4 26.7 11.8C26.74 11.68 26.94 11.16 26.94 10.84C26.94 10.08 26.34 9.84 25.9 9.8C25.02 9.68 23.94 10.44 22.94 10.76C21.46 11.32 20.02 11.84 17.42 12.12C17.42 11.08 16.98 10.48 15.46 10.48C15.26 10.48 15.02 10.48 14.74 10.52C13.98 11.12 13.86 12.04 13.86 13C13.86 13.56 14.02 13.68 14.9 14.24C15.94 14.88 16.54 15.12 17.18 15.12ZM17.82 19.56C19.34 19.56 21.1 18.96 23.46 18.04C25.22 17.36 27.86 16 28.62 15.44C28.78 15.2 28.9 14.84 28.9 14.52C28.9 13.84 28.46 13.2 27.74 13.2C27.46 13.2 27.18 13.28 26.86 13.4C25.58 14.2 23.86 15.04 22.02 15.64C20.3 16.2 17.9 16.56 16.98 16.56C16.58 16.56 16.3 16.52 15.9 16.36C15.74 16.76 15.58 17.36 15.58 18C15.58 19.12 16.58 19.56 17.82 19.56ZM19.34 22.64C21.78 22.64 22.62 22 24.06 21.2C25.14 20.6 26.18 19.76 26.62 19.16C26.58 18.8 26.38 18.4 26.14 18.16C25.34 18.56 24.5 18.92 23.86 19.2C22.38 19.8 20.38 20.8 18.18 20.8H17.9C17.86 20.88 17.86 20.96 17.86 21.04C17.86 21.64 18.06 22.64 19.34 22.64Z" fill="#5E72EB"/>
</svg>
