<svg width="47" height="25" viewBox="0 0 47 25" fill="none" xmlns="http://www.w3.org/2000/svg">
<path d="M24.62 24.96C20.22 24.96 14.7 23.72 11.06 20.96H8.14C6.7 19.44 5.98 16.64 5.98 12.68C5.98 9.68 6.86 6.4 8.1 5C8.22 4.96 9.7 5.08 10.34 5.08C11.74 5.08 12.26 5 14.54 3.2C17.02 1.24 18.62 0.599998 21.02 0.599998C23.78 0.599998 26.02 0.959999 27.7 1.64C29.46 2.36 30.86 2.76 31.58 2.96C32.06 3.08 32.54 3.32 32.86 3.56C34.02 3.64 35.18 3.72 36.34 3.84C38.18 4.04 40.5 4.32 42.14 4.52C45.42 4.92 46.82 5.84 46.82 7.76C46.82 9.64 45.5 10.52 42.9 10.52C41.98 10.52 40.1 10.4 38.42 10.4C37.14 10.4 35.9 10.48 34.74 10.56C35.22 11.24 35.38 11.92 35.38 12.88C35.38 14.16 34.82 14.92 33.66 15.44C33.3 15.6 33.1 15.76 33.1 16.04C33.1 16.48 33.5 17.08 33.5 17.84C33.5 19.2 32.82 20.16 31.54 20.6C31.18 20.72 31.14 20.8 31.14 21.4C31.14 23.8 28.86 24.96 24.62 24.96ZM24.62 23.6H26.22C25.58 23.4 24.74 23.08 23.5 22.44C21.9 21.6 20.54 20.52 19.94 19.64C19.86 19.44 19.82 19.12 19.82 18.84C19.82 18.32 20.06 17.84 20.34 17.52C19.34 17 18.46 16.48 18.02 16.12C17.82 15.88 17.62 15.44 17.58 14.92C16.86 15.16 16.06 15.24 15.14 15.24C14.5 15.24 13.82 15.16 13.34 15.04V13.64C13.78 13.76 14.62 13.8 15.14 13.8C16.26 13.8 17.14 13.68 17.86 13.32C18.22 12.68 18.86 12.24 19.66 12.16C19.54 11.8 19.46 11.4 19.46 11C19.46 9.64 20.34 8.48 21.98 8.48C22.58 8.48 23.18 8.68 23.82 8.92C24.02 8.64 24.26 8.32 24.46 7.96C23.58 7.72 22.9 7.4 22.62 7.12L23.7 6.16C24.18 6.68 28.46 7.48 30.1 7.48C31.18 7.48 32.22 6.8 32.22 5.32V4.92H32.18C32.18 4.8 31.66 4.48 31.22 4.36C30.5 4.16 28.98 3.72 27.14 2.96C25.66 2.36 23.58 2.04 21.02 2.04C18.94 2.04 17.66 2.56 15.42 4.36C13.06 6.24 12.14 6.52 10.34 6.52C9.94 6.52 9.3 6.48 8.82 6.44C8.02 7.84 7.42 10.36 7.42 12.68C7.42 15.88 7.9 18.16 8.82 19.52H11.54C14.46 22 19.5 23.6 24.62 23.6ZM4.3 22.28C1.7 22.28 0.98 16.64 0.98 12.96C0.98 9.32 1.74 3.6 4.3 3.6H7.3C7.78 3.6 8.1 3.96 8.1 4.56V4.64C7.9 4.4 7.78 4.36 7.5 4.36C5.26 4.36 4.66 9.36 4.66 12.96C4.66 16.64 5.38 21.6 7.5 21.6C7.78 21.6 7.94 21.48 8.1 21.2V21.48C8.1 21.92 7.9 22.28 7.3 22.28H4.3ZM29.22 10.52C29.5 9.56 30.66 9.08 31.82 9.08C32.54 9.08 32.94 9.12 33.3 9.2C34.9 9.12 36.86 8.96 38.42 8.96C40.14 8.96 42.02 9.08 42.9 9.08C44.82 9.08 45.38 8.68 45.38 7.76C45.38 6.76 44.54 6.36 41.94 5.96C40.34 5.72 38.14 5.48 36.14 5.28C35.42 5.2 34.54 5.16 33.62 5.08V5.28C33.62 7.6 32.02 8.92 30.18 8.92C29.14 8.92 27.42 8.68 25.86 8.32C25.66 8.72 25.42 9.08 25.18 9.44H25.22C25.9 9.68 27.14 10.2 29.22 10.52ZM30.62 15.12C31.26 15.12 31.86 14.88 32.9 14.24C33.78 13.68 33.94 13.56 33.94 13C33.94 12.04 33.82 11.12 33.06 10.52C32.78 10.48 32.54 10.48 32.34 10.48C30.82 10.48 30.38 11.08 30.38 12.12C27.78 11.84 26.34 11.32 24.86 10.76C23.86 10.44 22.78 9.68 21.9 9.8C21.46 9.84 20.86 10.08 20.86 10.84C20.86 11.16 21.06 11.68 21.1 11.8C21.86 12.4 23.38 13.36 25.98 14.28C27.54 14.84 29.58 15.12 30.62 15.12ZM29.98 19.56C31.22 19.56 32.22 19.12 32.22 18C32.22 17.36 32.06 16.76 31.9 16.36C31.5 16.52 31.22 16.56 30.82 16.56C29.9 16.56 27.5 16.2 25.78 15.64C23.94 15.04 22.22 14.2 20.94 13.4C20.62 13.28 20.34 13.2 20.06 13.2C19.34 13.2 18.9 13.84 18.9 14.52C18.9 14.84 19.02 15.2 19.18 15.44C19.94 16 22.58 17.36 24.34 18.04C26.7 18.96 28.46 19.56 29.98 19.56ZM28.46 22.64C29.74 22.64 29.94 21.64 29.94 21.04C29.94 20.96 29.94 20.88 29.9 20.8H29.62C27.42 20.8 25.42 19.8 23.94 19.2C23.3 18.92 22.46 18.56 21.66 18.16C21.42 18.4 21.22 18.8 21.18 19.16C21.62 19.76 22.66 20.6 23.74 21.2C25.18 22 26.02 22.64 28.46 22.64Z" fill="#5E72EB"/>
</svg>
